<?xml version="1.0" encoding="UTF-8" standalone="no"?>
<!-- Created with Inkscape (http://www.inkscape.org/) -->

<svg
   width="64"
   height="47"
   viewBox="0 0 640 470"
   version="1.1"
   id="svg1"
   inkscape:version="1.3 (1:1.3+202307231459+0e150ed6c4)"
   sodipodi:docname="draw_card.svg"
   xmlns:inkscape="http://www.inkscape.org/namespaces/inkscape"
   xmlns:sodipodi="http://sodipodi.sourceforge.net/DTD/sodipodi-0.dtd"
   xmlns="http://www.w3.org/2000/svg"
   xmlns:svg="http://www.w3.org/2000/svg">
  <sodipodi:namedview
     id="namedview1"
     pagecolor="#ffffff"
     bordercolor="#111111"
     borderopacity="1"
     inkscape:showpageshadow="false"
     inkscape:pageopacity="0"
     inkscape:pagecheckerboard="1"
     inkscape:deskcolor="#afafaf"
     inkscape:document-units="px"
     showgrid="true"
     labelstyle="default"
     inkscape:zoom="11.313709"
     inkscape:cx="27.356192"
     inkscape:cy="24.174212"
     inkscape:window-width="1920"
     inkscape:window-height="1011"
     inkscape:window-x="1920"
     inkscape:window-y="32"
     inkscape:window-maximized="1"
     inkscape:current-layer="layer1">
    <inkscape:grid
       id="grid1"
       units="px"
       originx="0"
       originy="0"
       spacingx="1"
       spacingy="1"
       empcolor="#0099e5"
       empopacity="0.30196078"
       color="#0099e5"
       opacity="0.14901961"
       empspacing="8"
       dotted="false"
       gridanglex="30"
       gridanglez="30"
       visible="true" />
  </sodipodi:namedview>
  <defs
     id="defs1" />
  <g
     inkscape:label="Layer 1"
     inkscape:groupmode="layer"
     id="layer1">
    <rect
       style="fill:#ececec;stroke:#1a1a1a;stroke-width:4;stroke-linecap:round;stroke-linejoin:round;stroke-dasharray:none;stroke-dashoffset:0;stroke-opacity:1;paint-order:normal"
       id="rect1"
       width="303.04248"
       height="455.04248"
       x="8.4787674"
       y="8.4787674"
       ry="31.984121"
       rx="31.284834" />
    <rect
       style="fill:#ececec;stroke:#1a1a1a;stroke-width:4;stroke-linecap:round;stroke-linejoin:round;stroke-dasharray:none;stroke-dashoffset:0;stroke-opacity:1;paint-order:normal"
       id="rect1-5"
       width="303.04248"
       height="455.04248"
       x="328.47879"
       y="7.1122398"
       ry="31.984121"
       rx="31.284834" />
    <g
       id="g4-5-2"
       transform="rotate(180,253.05459,237.43433)">
      <path
         style="fill:none;stroke:#1a1a1a;stroke-width:38.8231;stroke-linecap:round;stroke-linejoin:round;stroke-dasharray:none;stroke-opacity:1"
         d="m 45.520733,348.18222 c 73.416607,79.35648 146.156547,78.70922 218.236247,0"
         id="path3-3-9"
         sodipodi:nodetypes="cc" />
      <path
         sodipodi:type="star"
         style="fill:#1a1a1a;fill-opacity:1;stroke:#1a1a1a;stroke-width:12;stroke-linecap:round;stroke-linejoin:round;stroke-dasharray:none;stroke-opacity:1"
         id="path4-5-1"
         inkscape:flatsided="true"
         sodipodi:sides="3"
         sodipodi:cx="-81.432251"
         sodipodi:cy="244.45917"
         sodipodi:r1="29.155472"
         sodipodi:r2="14.577735"
         sodipodi:arg1="1.0471976"
         sodipodi:arg2="2.0943951"
         inkscape:rounded="0"
         inkscape:randomized="0"
         d="m -66.854516,269.70855 -43.733204,-25.24938 43.733206,-25.24938 z"
         inkscape:transform-center-x="7.2888677"
         transform="translate(356.58712,84.291892)" />
    </g>
    <path
       d="m 87.808594,273.76172 q -0.410157,0 -1.171875,0.0586 -0.761719,0.0586 -1.230469,0.0586 -14.648438,0 -21.914063,-11.25 -7.207031,-11.25 -7.207031,-34.10157 0,-22.91015 7.207031,-34.16015 7.265625,-11.25 22.03125,-11.25 14.824223,0 22.031253,11.25 7.26562,11.25 7.26562,34.16015 0,17.22657 -4.04297,27.77344 -3.98437,10.48828 -12.128903,14.70703 L 110.36719,282.14062 101.51953,288 Z m 14.648436,-45.23438 q 0,-19.27734 -3.984374,-27.53906 -3.925781,-8.26172 -12.949219,-8.26172 -8.964843,0 -12.949218,8.26172 -3.925782,8.26172 -3.925782,27.53906 0,19.21875 3.925782,27.48047 3.984375,8.26172 12.949218,8.26172 9.023438,0 12.949219,-8.20312 3.984374,-8.26172 3.984374,-27.53907 z m 51.26953,-9.49218 24.375,32.7539 q 2.28516,-2.87109 3.39844,-7.26562 1.11328,-4.39453 1.11328,-10.48828 0,-1.875 -0.17578,-5.97657 l -0.0586,-0.41015 h 9.60937 v 2.28515 q 0,9.4336 -2.16797,16.58203 -2.16797,7.08985 -6.5625,12.2461 l 9.96094,13.41797 h -12.48047 l -4.57031,-6.38672 q -4.86328,4.10156 -10.3125,6.09375 -5.44922,1.99219 -11.66016,1.99219 -12.65625,0 -20.91797,-7.85157 -8.26171,-7.91015 -8.26171,-19.86328 0,-8.02734 4.04296,-14.88281 4.04297,-6.85547 12.1875,-12.71484 -2.92968,-4.21875 -4.33593,-8.26172 -1.40625,-4.04297 -1.40625,-8.20313 0,-8.78906 5.80078,-13.88672 5.85937,-5.09765 15.99609,-5.09765 3.80859,0 7.61719,0.70312 3.86719,0.70313 7.96875,2.05078 v 10.72266 q -3.45703,-2.28516 -7.14844,-3.33984 -3.63281,-1.11329 -7.67578,-1.11329 -5.68359,0 -8.96484,2.69532 -3.28125,2.63672 -3.28125,7.14843 0,3.45704 1.69921,7.26563 1.69922,3.75 6.21094,9.78516 z m -7.67578,6.09375 q -5.39062,4.27734 -8.08594,9.08203 -2.63672,4.74609 -2.63672,10.13672 0,8.84765 5.85938,14.70703 5.85937,5.80078 14.94141,5.80078 2.46093,0 5.15625,-0.70313 2.69531,-0.70312 5.27343,-2.05078 1.58203,-0.8789 2.57813,-1.52344 1.05469,-0.70312 1.99219,-1.46484 z m 83.96484,-30 -12.48046,44.76562 h 24.96093 z m -7.14843,-10.42969 h 14.35547 L 264,272.17969 h -12.24609 l -6.44532,-22.79297 h -30.64453 l -6.32812,22.79297 h -12.2461 z"
       id="text1"
       style="font-size:120px;font-family:Monospace;-inkscape-font-specification:Monospace;fill:#1a1a1a;stroke-width:120;stroke-linecap:round;stroke-linejoin:round"
       aria-label="Q&amp;A" />
  </g>
</svg>
