<?xml version="1.0" encoding="UTF-8" standalone="no"?>
<!-- Created with Inkscape (http://www.inkscape.org/) -->

<svg
   width="32"
   height="32"
   viewBox="0 0 32 32"
   version="1.1"
   id="svg1"
   inkscape:version="1.3 (1:1.3+202307231459+0e150ed6c4)"
   sodipodi:docname="gear.svg"
   xmlns:inkscape="http://www.inkscape.org/namespaces/inkscape"
   xmlns:sodipodi="http://sodipodi.sourceforge.net/DTD/sodipodi-0.dtd"
   xmlns="http://www.w3.org/2000/svg"
   xmlns:svg="http://www.w3.org/2000/svg">
  <sodipodi:namedview
     id="namedview1"
     pagecolor="#ffffff"
     bordercolor="#111111"
     borderopacity="1"
     inkscape:showpageshadow="false"
     inkscape:pageopacity="0"
     inkscape:pagecheckerboard="1"
     inkscape:deskcolor="#afafaf"
     inkscape:document-units="px"
     showgrid="true"
     labelstyle="default"
     inkscape:zoom="23.261953"
     inkscape:cx="14.422693"
     inkscape:cy="13.71338"
     inkscape:window-width="1920"
     inkscape:window-height="1016"
     inkscape:window-x="1920"
     inkscape:window-y="27"
     inkscape:window-maximized="1"
     inkscape:current-layer="layer1">
    <inkscape:grid
       id="grid1"
       units="px"
       originx="0"
       originy="0"
       spacingx="1"
       spacingy="1"
       empcolor="#0099e5"
       empopacity="0.30196078"
       color="#0099e5"
       opacity="0.14901961"
       empspacing="8"
       dotted="false"
       gridanglex="30"
       gridanglez="30"
       visible="true" />
  </sodipodi:namedview>
  <defs
     id="defs1" />
  <g
     inkscape:label="Layer 1"
     inkscape:groupmode="layer"
     id="layer1">
    <path
       id="rect1"
       style="fill:#ececec;stroke-width:4.53643;stroke-linecap:round;stroke-linejoin:round"
       d="M 13.972656 3 C 13.434108 3 13 3.4341085 13 3.9726562 L 13 16 A 3 3 0 0 1 16 13 A 3 3 0 0 1 19 16 L 19 3.9726562 C 19 3.4341085 18.565892 3 18.027344 3 L 13.972656 3 z M 19 16 A 3 3 0 0 1 16 19 L 18.027344 19 C 18.565892 19 19 18.565892 19 18.027344 L 19 16 z M 16 19 A 3 3 0 0 1 13 16 L 13 18.027344 C 13 18.565892 13.434108 19 13.972656 19 L 16 19 z " />
    <path
       id="rect1-7-6"
       style="fill:#ececec;stroke-width:4.53643;stroke-linecap:round;stroke-linejoin:round"
       d="M -2.7165606 9.7876284 C -2.5408521 9.6119199 -2.2980627 9.5031284 -2.0287888 9.5031284 L 2.0287888 9.5031284 C 2.5673366 9.5031284 2.9996795 9.9354714 2.9996795 10.474019 L 2.9996795 24.530529 C 2.9996795 25.069076 2.5659555 25.5028 2.0274077 25.5028 L 0.82587862 25.5028 A 3 3 0 0 0 2.1213203 24.748737 A 3 3 0 0 0 2.1213203 20.506097 A 3 3 0 0 0 -2.1213203 20.506097 A 3 3 0 0 0 -2.9996795 22.627417 L -2.9996795 10.474019 C -2.9996795 10.204745 -2.8922691 9.9633369 -2.7165606 9.7876284 z M -2.9996795 22.627417 A 3 3 0 0 0 -2.1213203 24.748737 A 3 3 0 0 0 -0.82587862 25.5028 L -2.0274077 25.5028 C -2.5659555 25.5028 -2.9996795 25.069076 -2.9996795 24.530529 L -2.9996795 22.627417 z "
       transform="matrix(-0.70710678,0.70710678,0.70710678,0.70710678,0,0)" />
    <path
       id="rect1-7-2"
       style="fill:#ececec;stroke-width:4.53643;stroke-linecap:round;stroke-linejoin:round"
       d="M -19.912237 2.5908834 C -19.736529 2.4151749 -19.627737 2.1723855 -19.627737 1.9031116 L -19.627737 -12.153398 C -19.627737 -12.691946 -20.06008 -13.124289 -20.598628 -13.124289 L -24.656206 -13.124289 C -25.194754 -13.124289 -25.627097 -12.691946 -25.627097 -12.153398 L -25.627097 1.9031116 C -25.627097 2.4416594 -25.193373 2.8753834 -24.654825 2.8753834 L -23.483679 2.8753834 A 3 3 0 0 1 -24.748737 2.1213203 A 3 3 0 0 1 -24.748737 -2.1213203 A 3 3 0 0 1 -20.506097 -2.1213203 A 3 3 0 0 1 -20.506097 2.1213203 A 3 3 0 0 1 -21.771155 2.8753834 L -20.600009 2.8753834 C -20.330735 2.8753834 -20.087946 2.7665919 -19.912237 2.5908834 z "
       transform="rotate(-135)" />
    <path
       id="rect1-3"
       style="fill:#ececec;stroke-width:4.53643;stroke-linecap:round;stroke-linejoin:round"
       d="M 13.972656 13 C 13.434108 13 13 13.434108 13 13.972656 L 13 16 A 3 3 0 0 1 16 13 L 13.972656 13 z M 16 13 A 3 3 0 0 1 19 16 L 19 13.972656 C 19 13.434108 18.565892 13 18.027344 13 L 16 13 z M 19 16 A 3 3 0 0 1 16 19 A 3 3 0 0 1 13 16 L 13 28.027344 C 13 28.565892 13.434108 29 13.972656 29 L 18.027344 29 C 18.565892 29 19 28.565892 19 28.027344 L 19 16 z " />
    <path
       id="rect1-6"
       style="fill:#ececec;stroke-width:4.53643;stroke-linecap:round;stroke-linejoin:round"
       d="M -13 -3.9726562 C -13 -3.4341085 -13.434108 -3 -13.972656 -3 L -18.027344 -3 C -18.565892 -3 -19 -3.4341085 -19 -3.9726562 L -19 -16 A 3 3 0 0 0 -16 -13 A 3 3 0 0 0 -13 -16 L -13 -3.9726562 z M -13 -16 A 3 3 0 0 0 -16 -19 L -13.972656 -19 C -13.434108 -19 -13 -18.565892 -13 -18.027344 L -13 -16 z M -16 -19 A 3 3 0 0 0 -19 -16 L -19 -18.027344 C -19 -18.565892 -18.565892 -19 -18.027344 -19 L -16 -19 z "
       transform="matrix(0,-1,-1,0,0,0)" />
    <path
       id="rect1-6-9"
       style="fill:#ececec;stroke-width:4.53643;stroke-linecap:round;stroke-linejoin:round"
       d="M -13 -13.972656 C -13 -13.434108 -13.434108 -13 -13.972656 -13 L -16 -13 A 3 3 0 0 0 -13 -16 L -13 -13.972656 z M -13 -16 A 3 3 0 0 0 -16 -19 A 3 3 0 0 0 -19 -16 L -19 -28.027344 C -19 -28.565892 -18.565892 -29 -18.027344 -29 L -13.972656 -29 C -13.434108 -29 -13 -28.565892 -13 -28.027344 L -13 -16 z M -19 -16 A 3 3 0 0 0 -16 -13 L -18.027344 -13 C -18.565892 -13 -19 -13.434108 -19 -13.972656 L -19 -16 z "
       transform="matrix(0,-1,-1,0,0,0)" />
    <path
       id="rect1-7"
       style="fill:#ececec;stroke-width:4.53643;stroke-linecap:round;stroke-linejoin:round"
       d="M 19.910856 -12.839789 C 19.735148 -12.66408 19.627737 -12.422672 19.627737 -12.153398 L 19.627737 1.9031116 C 19.627737 2.4416594 20.061461 2.8753834 20.600009 2.8753834 L 21.801538 2.8753834 A 3 3 0 0 1 20.506097 2.1213203 A 3 3 0 0 1 20.506097 -2.1213203 A 3 3 0 0 1 24.748737 -2.1213203 A 3 3 0 0 1 24.748737 2.1213203 A 3 3 0 0 1 23.453296 2.8753834 L 24.654825 2.8753834 C 25.193373 2.8753834 25.627097 2.4416594 25.627097 1.9031116 L 25.627097 -12.153398 C 25.627097 -12.691946 25.194754 -13.124289 24.656206 -13.124289 L 20.598628 -13.124289 C 20.329354 -13.124289 20.086565 -13.015497 19.910856 -12.839789 z "
       transform="rotate(45)" />
    <path
       id="rect1-7-6-2"
       style="fill:#ececec;stroke-width:4.53643;stroke-linecap:round;stroke-linejoin:round"
       d="M 2.7151796 -20.036534 C 2.539471 -19.860825 2.2966816 -19.752034 2.0274077 -19.752034 L 0.82587862 -19.752034 A 3 3 0 0 0 2.1213203 -20.506097 A 3 3 0 0 0 2.9996795 -22.627417 L 2.9996795 -20.724305 C 2.9996795 -20.455031 2.8908881 -20.212242 2.7151796 -20.036534 z M 2.9996795 -22.627417 A 3 3 0 0 0 2.1213203 -24.748737 A 3 3 0 0 0 -2.1213203 -24.748737 A 3 3 0 0 0 -2.1213203 -20.506097 A 3 3 0 0 0 -0.82587862 -19.752034 L -2.0274077 -19.752034 C -2.5659555 -19.752034 -2.9996795 -20.185758 -2.9996795 -20.724305 L -2.9996795 -34.780815 C -2.9996795 -35.319363 -2.5673366 -35.751706 -2.0287888 -35.751706 L 2.0287888 -35.751706 C 2.5673366 -35.751706 2.9996795 -35.319363 2.9996795 -34.780815 L 2.9996795 -22.627417 z "
       transform="matrix(0.70710678,-0.70710678,-0.70710678,-0.70710678,0,0)" />
    <path
       id="path1"
       style="fill:#ececec;stroke-width:3.76535;stroke-linecap:round;stroke-linejoin:round"
       d="M 16 6 A 10 10 0 0 0 6 16 A 10 10 0 0 0 16 26 A 10 10 0 0 0 26 16 A 10 10 0 0 0 16 6 z M 16 13 A 3 3 0 0 1 19 16 A 3 3 0 0 1 16 19 A 3 3 0 0 1 13 16 A 3 3 0 0 1 16 13 z " />
  </g>
</svg>
