<?xml version="1.0" encoding="UTF-8" standalone="no"?>
<!-- Created with Inkscape (http://www.inkscape.org/) -->

<svg
   width="320"
   height="470"
   viewBox="0 0 320 470"
   version="1.1"
   id="svg1"
   inkscape:version="1.3 (1:1.3+202307231459+0e150ed6c4)"
   sodipodi:docname="missing_image.svg"
   xmlns:inkscape="http://www.inkscape.org/namespaces/inkscape"
   xmlns:sodipodi="http://sodipodi.sourceforge.net/DTD/sodipodi-0.dtd"
   xmlns="http://www.w3.org/2000/svg"
   xmlns:svg="http://www.w3.org/2000/svg">
  <sodipodi:namedview
     id="namedview1"
     pagecolor="#ffffff"
     bordercolor="#111111"
     borderopacity="1"
     inkscape:showpageshadow="false"
     inkscape:pageopacity="0"
     inkscape:pagecheckerboard="1"
     inkscape:deskcolor="#afafaf"
     inkscape:document-units="px"
     showgrid="true"
     labelstyle="default"
     inkscape:zoom="1.4142136"
     inkscape:cx="121.62236"
     inkscape:cy="189.85817"
     inkscape:window-width="1920"
     inkscape:window-height="1043"
     inkscape:window-x="0"
     inkscape:window-y="0"
     inkscape:window-maximized="1"
     inkscape:current-layer="layer1">
    <inkscape:grid
       id="grid1"
       units="px"
       originx="0"
       originy="0"
       spacingx="1"
       spacingy="1"
       empcolor="#0099e5"
       empopacity="0.30196078"
       color="#0099e5"
       opacity="0.14901961"
       empspacing="8"
       dotted="false"
       gridanglex="30"
       gridanglez="30"
       visible="true" />
  </sodipodi:namedview>
  <defs
     id="defs1" />
  <g
     inkscape:label="Layer 1"
     inkscape:groupmode="layer"
     id="layer1">
    <path
       d="m 124.68203,307.65944 q -1.11892,-5.59463 -1.67838,-11.74873 -0.55947,-6.71355 -0.55947,-13.42711 0,-22.93798 8.95141,-39.72187 8.95141,-17.34336 22.37852,-31.32993 13.42711,-14.54604 26.85423,-27.97315 13.42711,-13.98658 22.37852,-29.09208 8.9514,-15.66496 8.9514,-35.24617 0,-29.651538 -19.02174,-40.281335 -19.02174,-10.629798 -45.3165,-10.629798 -19.02174,0 -36.3651,4.475704 -16.783888,3.916242 -33.008315,12.86765 L 65.938419,51.425377 q 12.867649,-7.832482 35.805631,-13.986575 22.93798,-6.154094 49.79221,-6.154094 30.211,0 50.35167,7.832483 20.70013,7.273019 32.44886,20.140668 12.30818,12.308186 17.34335,27.413688 5.03517,15.105503 5.03517,30.211003 0,24.05691 -10.07034,41.95973 -10.07033,17.90281 -24.61637,33.56778 -14.54604,15.1055 -29.09208,30.211 -14.54604,14.54604 -24.61637,31.32993 -10.07033,16.78389 -10.07033,38.60295 0,5.59463 0,8.9514 0,3.35678 0.55946,6.1541 z m 19.58121,126.43864 q -14.54604,0 -24.05691,-9.51087 -8.95141,-9.51087 -8.95141,-23.49745 0,-13.98658 8.95141,-23.49745 9.51087,-9.51087 24.05691,-9.51087 15.1055,0 24.05691,9.51087 9.51087,9.51087 9.51087,23.49745 0,13.98658 -9.51087,23.49745 -8.95141,9.51087 -24.05691,9.51087 z"
       id="text1"
       style="font-size:559.463px;font-family:Ubuntu;-inkscape-font-specification:Ubuntu;text-align:center;text-anchor:middle;stroke:#000000;stroke-width:14.5694;stroke-linecap:round;stroke-linejoin:round"
       aria-label="?" />
  </g>
</svg>
