<?xml version="1.0" encoding="UTF-8" standalone="no"?>
<!-- Created with Inkscape (http://www.inkscape.org/) -->

<svg
   width="32"
   height="32"
   viewBox="0 0 32 32"
   version="1.1"
   id="svg1"
   inkscape:version="1.3 (1:1.3+202307231459+0e150ed6c4)"
   sodipodi:docname="plus_text.svg"
   xmlns:inkscape="http://www.inkscape.org/namespaces/inkscape"
   xmlns:sodipodi="http://sodipodi.sourceforge.net/DTD/sodipodi-0.dtd"
   xmlns="http://www.w3.org/2000/svg"
   xmlns:svg="http://www.w3.org/2000/svg">
  <sodipodi:namedview
     id="namedview1"
     pagecolor="#ffffff"
     bordercolor="#111111"
     borderopacity="1"
     inkscape:showpageshadow="false"
     inkscape:pageopacity="0"
     inkscape:pagecheckerboard="1"
     inkscape:deskcolor="#afafaf"
     inkscape:document-units="px"
     showgrid="true"
     labelstyle="default"
     inkscape:zoom="16"
     inkscape:cx="14.4375"
     inkscape:cy="18.46875"
     inkscape:window-width="1920"
     inkscape:window-height="1043"
     inkscape:window-x="0"
     inkscape:window-y="0"
     inkscape:window-maximized="1"
     inkscape:current-layer="layer1">
    <inkscape:grid
       id="grid1"
       units="px"
       originx="0"
       originy="0"
       spacingx="1"
       spacingy="1"
       empcolor="#0099e5"
       empopacity="0.30196078"
       color="#0099e5"
       opacity="0.14901961"
       empspacing="8"
       dotted="false"
       gridanglex="30"
       gridanglez="30"
       visible="true" />
  </sodipodi:namedview>
  <defs
     id="defs1" />
  <g
     inkscape:label="Layer 1"
     inkscape:groupmode="layer"
     id="layer1">
    <path
       id="rect1-5-6-4"
       style="fill:#ececec;fill-opacity:1;stroke:none;stroke-width:0.887614;stroke-linecap:round;stroke-linejoin:round;stroke-opacity:1"
       d="M 14.371968 -6.0874904 C 14.365202 -6.0807247 14.360459 -6.0709171 14.360459 -6.0605486 L 14.361334 22.862842 C 14.361334 22.883579 14.378804 22.901675 14.399542 22.901675 L 20.323465 22.900492 C 20.344202 22.900492 20.360607 22.883999 20.360607 22.863262 L 20.360642 -3.6249579 L 16.077658 -6.0979924 L 14.399293 -6.098756 C 14.388924 -6.098756 14.378733 -6.0942562 14.371968 -6.0874904 z "
       transform="rotate(30)" />
    <path
       id="rect1-5-6-4-4"
       style="fill:#ececec;fill-opacity:1;stroke:none;stroke-width:0.420214;stroke-linecap:round;stroke-linejoin:round;stroke-opacity:1"
       d="m 22.994941,19.005813 c -0.0031,-0.0033 -0.0073,-0.0057 -0.01208,-0.0058 l -12.965459,4.38e-4 c -0.0093,0 -0.017408,0.0087 -0.017408,0.01911 l 5.38e-4,2.961853 c 0,0.01035 0.0073,0.01857 0.01669,0.01857 L 21.891073,22 22.999657,19.858586 23,19.019475 c -7e-6,-0.0053 -0.002,-0.01035 -0.0051,-0.01365 z" />
    <path
       id="rect1-5-6-4-7"
       style="fill:#ececec;fill-opacity:1;stroke:none;stroke-width:0.887614;stroke-linecap:round;stroke-linejoin:round;stroke-opacity:1"
       d="M -13.2969 9.9886251 C -13.290134 9.9818593 -13.279943 9.9773596 -13.269575 9.9773596 L -11.425026 9.9768986 L -7.307931 12.354011 L -7.3082608 38.939377 C -7.3082608 38.960114 -7.3246656 38.976608 -7.3454027 38.976608 L -13.270303 38.976099 C -13.29104 38.976099 -13.307533 38.959694 -13.307533 38.938957 L -13.308408 10.015567 C -13.308408 10.005198 -13.303666 9.9953909 -13.2969 9.9886251 z "
       transform="matrix(-0.8660254,0.5,0.5,0.8660254,0,0)" />
    <rect
       style="fill:#000000;stroke:none;stroke-width:0.521225;stroke-linecap:round;stroke-linejoin:round;stroke-opacity:1;fill-opacity:1"
       id="rect1"
       width="4"
       height="15"
       x="21.5"
       y="16"
       ry="0.019361192" />
    <rect
       style="fill:#000000;stroke:none;stroke-width:0.521225;stroke-linecap:round;stroke-linejoin:round;stroke-opacity:1;fill-opacity:1"
       id="rect1-5"
       width="4"
       height="15"
       x="21.5"
       y="-31"
       ry="0.019361192"
       transform="rotate(90)" />
  </g>
</svg>
