<?xml version="1.0" encoding="UTF-8" standalone="no"?>
<!-- Created with Inkscape (http://www.inkscape.org/) -->

<svg
   width="32"
   height="32"
   viewBox="0 0 32 32"
   version="1.1"
   id="svg1"
   inkscape:version="1.3 (1:1.3+202307231459+0e150ed6c4)"
   sodipodi:docname="trash.svg"
   xmlns:inkscape="http://www.inkscape.org/namespaces/inkscape"
   xmlns:sodipodi="http://sodipodi.sourceforge.net/DTD/sodipodi-0.dtd"
   xmlns="http://www.w3.org/2000/svg"
   xmlns:svg="http://www.w3.org/2000/svg">
  <sodipodi:namedview
     id="namedview1"
     pagecolor="#ffffff"
     bordercolor="#111111"
     borderopacity="1"
     inkscape:showpageshadow="false"
     inkscape:pageopacity="0"
     inkscape:pagecheckerboard="1"
     inkscape:deskcolor="#afafaf"
     inkscape:document-units="px"
     showgrid="true"
     labelstyle="default"
     inkscape:zoom="23.261953"
     inkscape:cx="10.83314"
     inkscape:cy="15.970284"
     inkscape:window-width="1920"
     inkscape:window-height="1011"
     inkscape:window-x="1920"
     inkscape:window-y="32"
     inkscape:window-maximized="1"
     inkscape:current-layer="layer1">
    <inkscape:grid
       id="grid1"
       units="px"
       originx="0"
       originy="0"
       spacingx="1"
       spacingy="1"
       empcolor="#0099e5"
       empopacity="0.30196078"
       color="#0099e5"
       opacity="0.14901961"
       empspacing="8"
       dotted="false"
       gridanglex="30"
       gridanglez="30"
       visible="true" />
  </sodipodi:namedview>
  <defs
     id="defs1" />
  <g
     inkscape:label="Layer 1"
     inkscape:groupmode="layer"
     id="layer1">
    <path
       id="path1"
       style="fill:#ececec;fill-opacity:1;stroke:#ececec;stroke-width:0.626464;stroke-linejoin:round;stroke-dasharray:none;stroke-opacity:1"
       inkscape:transform-center-y="10.472968"
       d="M 2.3132244,6.8067938 7.4570832,30.421559 H 24.542916 L 29.686776,6.8067938 H 16 Z m 7.422133,2.4104193 c 0.6941186,0 1.2529286,0.5588092 1.2529286,1.2529289 v 17.540999 c 0,0.694118 -0.55881,1.252927 -1.2529286,1.252927 -0.6941185,0 -1.2529285,-0.558809 -1.2529285,-1.252927 V 10.470142 c 0,-0.6941197 0.55881,-1.2529289 1.2529285,-1.2529289 z m 6.2646426,0 c 0.694119,0 1.252929,0.5588082 1.252929,1.2529289 v 17.540999 c 0,0.694119 -0.55881,1.252927 -1.252929,1.252927 -0.694119,0 -1.252929,-0.558808 -1.252929,-1.252927 V 10.470142 c 0,-0.6941207 0.55881,-1.2529289 1.252929,-1.2529289 z m 6.264643,0 c 0.694121,0 1.252928,0.5588071 1.252928,1.2529289 v 17.540999 c 0,0.69412 -0.558807,1.252927 -1.252928,1.252927 -0.694122,0 -1.252929,-0.558807 -1.252929,-1.252927 V 10.470142 c 0,-0.6941218 0.558807,-1.2529289 1.252929,-1.2529289 z" />
    <rect
       style="fill:#ececec;fill-opacity:1;stroke:none;stroke-width:3.20347;stroke-linejoin:round;stroke-dasharray:none;stroke-opacity:1"
       id="rect1"
       width="27.564428"
       height="2.505857"
       x="2.2177863"
       y="2.9525702"
       ry="1.2529285"
       rx="1.7227768" />
    <rect
       style="fill:#ececec;fill-opacity:1;stroke:none;stroke-width:2.25789;stroke-linejoin:round;stroke-dasharray:none;stroke-opacity:1"
       id="rect2"
       width="7.517571"
       height="2.505857"
       x="12.241215"
       y="1.6996418"
       rx="1.3478117"
       ry="0.72634482" />
  </g>
</svg>
